<svg width="25" height="25" viewBox="0 0 25 25" fill="none" xmlns="http://www.w3.org/2000/svg">
<path d="M12.5 0C5.59687 0 0 5.59687 0 12.5C0 19.4031 5.59687 25 12.5 25C19.4031 25 25 19.4031 25 12.5C25 5.59687 19.4031 0 12.5 0ZM18.6396 8.56354L16.5875 18.2302C16.4365 18.9156 16.0281 19.0823 15.4583 18.7594L12.3333 16.4573L10.8271 17.9094C10.6812 18.0969 10.4552 18.2167 10.2021 18.2167C10.2 18.2167 10.199 18.2167 10.1969 18.2167L10.4187 15.0354L16.2104 9.80417C16.4604 9.58229 16.1542 9.45625 15.8219 9.67813L8.66667 14.1844L5.58333 13.2219C4.91667 13.0104 4.89792 12.5552 5.72396 12.2281L17.7719 7.58437C18.3323 7.38021 18.8198 7.71771 18.6385 8.56458L18.6396 8.56354Z" fill="#102F28"/>
</svg>
