<svg width="328" height="126" viewBox="0 0 328 126" fill="none" xmlns="http://www.w3.org/2000/svg">
<path d="M122.121 12L139.521 42H132.561L116.301 13.8H102.141V42H96.1406V-2.86102e-06H102.141V12H119.661L126.681 -2.86102e-06H129.021L122.121 12ZM160.304 25.8H152.564L137.684 -2.86102e-06H144.584L158.444 24H161.324L175.184 -2.86102e-06H177.344L153.104 42H150.944L160.304 25.8ZM200.646 13.5C202.646 11.1 204.346 9.06 205.746 7.38C207.186 5.7 208.366 4.3 209.286 3.18C210.366 1.9 211.266 0.839998 211.986 -2.86102e-06H214.326L201.786 14.94C204.346 18.02 206.946 21.16 209.586 24.36C212.266 27.52 214.726 30.42 216.966 33.06C219.526 36.14 222.046 39.12 224.526 42H216.666L197.886 19.62L179.106 42H176.766C178.846 39.56 180.986 37.02 183.186 34.38C185.106 32.1 187.246 29.56 189.606 26.76C191.966 23.96 194.346 21.12 196.746 18.24L181.446 -2.86102e-06H189.246L200.646 13.5ZM234.797 12H268.997V-2.86102e-06H274.997V42H268.997V13.8H234.797V42H228.797V-2.86102e-06H234.797V12ZM321.101 4.5L289.481 42H285.281V-2.86102e-06H291.281V36.12H292.061L322.481 -2.86102e-06H327.881V42H321.881V4.5H321.101ZM6.04688 82.8V109.2H23.4469C25.7269 109.2 27.5069 108.86 28.7869 108.18C30.1069 107.5 31.0669 106.58 31.6669 105.42C32.3069 104.22 32.6869 102.82 32.8069 101.22C32.9669 99.62 33.0469 97.88 33.0469 96C33.0469 94.16 32.9669 92.44 32.8069 90.84C32.6869 89.24 32.3069 87.84 31.6669 86.64C31.0669 85.44 30.1069 84.5 28.7869 83.82C27.5069 83.14 25.7269 82.8 23.4469 82.8H6.04688ZM28.7869 81.36C30.7469 81.56 32.3869 82.16 33.7069 83.16C35.0269 84.12 36.0869 85.32 36.8869 86.76C37.6869 88.16 38.2469 89.68 38.5669 91.32C38.8869 92.96 39.0469 94.52 39.0469 96C39.0469 97.76 38.8069 99.54 38.3269 101.34C37.8869 103.1 37.0869 104.7 35.9269 106.14C34.8069 107.58 33.2669 108.76 31.3069 109.68C29.3869 110.56 26.9669 111 24.0469 111H0.046875V69H23.4469C24.7669 69 26.0069 69.1 27.1669 69.3C28.3269 69.5 29.3269 69.88 30.1669 70.44C31.0469 70.96 31.7469 71.7 32.2669 72.66C32.7869 73.58 33.0469 74.76 33.0469 76.2C33.0469 77.44 32.6069 78.54 31.7269 79.5C30.8869 80.46 29.9069 81.08 28.7869 81.36ZM22.8469 81C23.8069 81 24.5669 80.94 25.1269 80.82C25.6869 80.7 26.1069 80.46 26.3869 80.1C26.6669 79.74 26.8469 79.26 26.9269 78.66C27.0069 78.02 27.0469 77.2 27.0469 76.2C27.0469 74.24 26.7669 72.86 26.2069 72.06C25.6469 71.22 24.5269 70.8 22.8469 70.8H6.04688V81H22.8469ZM117.743 107.1C115.343 108.66 112.743 109.84 109.943 110.64C107.143 111.4 104.343 111.78 101.543 111.78C98.543 111.78 95.523 111.32 92.483 110.4C89.443 109.48 86.703 108.12 84.263 106.32C81.863 104.52 79.883 102.26 78.323 99.54C76.803 96.82 76.043 93.66 76.043 90.06C76.043 86.42 76.803 83.24 78.323 80.52C79.883 77.76 81.863 75.48 84.263 73.68C86.703 71.84 89.443 70.48 92.483 69.6C95.523 68.68 98.543 68.22 101.543 68.22C104.343 68.22 107.143 68.62 109.943 69.42C112.743 70.18 115.343 71.34 117.743 72.9L116.003 75.96C114.323 74 112.283 72.46 109.883 71.34C107.483 70.18 104.703 69.62 101.543 69.66C98.423 69.7 95.663 70.28 93.263 71.4C90.863 72.48 88.843 73.94 87.203 75.78C85.603 77.58 84.383 79.7 83.543 82.14C82.703 84.54 82.283 87.06 82.283 89.7C82.283 92.42 82.703 95.02 83.543 97.5C84.383 99.98 85.623 102.16 87.263 104.04C88.903 105.92 90.923 107.42 93.323 108.54C95.723 109.62 98.483 110.16 101.603 110.16C104.803 110.12 107.583 109.56 109.943 108.48C112.343 107.4 114.363 105.92 116.003 104.04L117.743 107.1ZM121.336 90.06C121.336 86.42 122.096 83.24 123.616 80.52C125.176 77.76 127.156 75.48 129.556 73.68C131.996 71.84 134.736 70.48 137.776 69.6C140.816 68.68 143.836 68.22 146.836 68.22C149.836 68.22 152.856 68.68 155.896 69.6C158.936 70.48 161.676 71.84 164.116 73.68C166.556 75.48 168.536 77.76 170.056 80.52C171.616 83.24 172.396 86.42 172.396 90.06C172.396 93.66 171.616 96.82 170.056 99.54C168.536 102.26 166.556 104.52 164.116 106.32C161.676 108.12 158.936 109.48 155.896 110.4C152.856 111.32 149.836 111.78 146.836 111.78C143.836 111.78 140.816 111.32 137.776 110.4C134.736 109.48 131.996 108.12 129.556 106.32C127.156 104.52 125.176 102.26 123.616 99.54C122.096 96.82 121.336 93.66 121.336 90.06ZM127.576 89.7C127.576 92.42 127.996 95.02 128.836 97.5C129.676 99.98 130.916 102.16 132.556 104.04C134.196 105.92 136.216 107.42 138.616 108.54C141.016 109.62 143.776 110.16 146.896 110.16C150.016 110.16 152.776 109.62 155.176 108.54C157.576 107.46 159.576 106 161.176 104.16C162.816 102.32 164.056 100.2 164.896 97.8C165.736 95.4 166.176 92.88 166.216 90.24C166.216 87.52 165.776 84.92 164.896 82.44C164.056 79.92 162.816 77.72 161.176 75.84C159.536 73.92 157.516 72.4 155.116 71.28C152.716 70.16 149.956 69.62 146.836 69.66C143.716 69.7 140.956 70.28 138.556 71.4C136.156 72.48 134.136 73.94 132.496 75.78C130.896 77.58 129.676 79.7 128.836 82.14C127.996 84.54 127.576 87.06 127.576 89.7ZM184.029 82.8C180.549 82.8 178.029 82.04 176.469 80.52C174.909 79 174.129 76.76 174.129 73.8V69H180.129V73.8C180.129 75.2 180.229 76.36 180.429 77.28C180.669 78.2 181.069 78.94 181.629 79.5C182.189 80.06 182.929 80.46 183.849 80.7C184.769 80.9 185.929 81 187.329 81H204.729V69H210.729V111H204.729V82.8H184.029ZM256.765 73.5L225.145 111H220.945V69H226.945V105.12H227.725L258.145 69H263.545V111H257.545V73.5H256.765Z" fill="#2D2D2D"/>
</svg>
