<svg width="490" height="51" viewBox="0 0 490 51" fill="none" xmlns="http://www.w3.org/2000/svg">
<path d="M25.06 10.8V10H24.5979L24.3671 10.4002L25.06 10.8ZM14.56 29L13.8671 28.6002L13.1749 29.8H14.56V29ZM37.1 29V29.8H38.4851L37.793 28.6002L37.1 29ZM26.6 10.8L27.293 10.4002L27.0621 10H26.6V10.8ZM38.29 31.1L38.9827 30.6998L38.7517 30.3H38.29V31.1ZM13.44 31.1V30.3H12.9798L12.7484 30.6979L13.44 31.1ZM2.45 50V50.8H2.91023L3.14158 50.4021L2.45 50ZM0 50L-0.692883 49.6001L-1.38539 50.8H0V50ZM28.28 0.999997V0.199997H27.818L27.5871 0.600104L28.28 0.999997ZM28.98 0.999997L29.6725 0.599363L29.4414 0.199997H28.98V0.999997ZM57.33 50V50.8H58.7171L58.0225 49.5994L57.33 50ZM49.21 50L48.5173 50.4002L48.7483 50.8H49.21V50ZM24.3671 10.4002L13.8671 28.6002L15.2529 29.3998L25.7529 11.1998L24.3671 10.4002ZM14.56 29.8H37.1V28.2H14.56V29.8ZM37.793 28.6002L27.293 10.4002L25.9071 11.1998L36.4071 29.3998L37.793 28.6002ZM26.6 10H25.06V11.6H26.6V10ZM38.29 30.3H13.44V31.9H38.29V30.3ZM12.7484 30.6979L1.75842 49.5979L3.14158 50.4021L14.1316 31.5021L12.7484 30.6979ZM2.45 49.2H0V50.8H2.45V49.2ZM0.692883 50.3999L28.9729 1.39989L27.5871 0.600104L-0.692883 49.6001L0.692883 50.3999ZM28.28 1.8H28.98V0.199997H28.28V1.8ZM28.2875 1.40063L56.6376 50.4006L58.0225 49.5994L29.6725 0.599363L28.2875 1.40063ZM57.33 49.2H49.21V50.8H57.33V49.2ZM49.9027 49.5998L38.9827 30.6998L37.5973 31.5002L48.5173 50.4002L49.9027 49.5998ZM68.5918 17.1V16.3H67.7918V17.1H68.5918ZM68.5918 47.9H67.7918V48.7H68.5918V47.9ZM95.1218 46.71L94.7554 45.9988L94.7465 46.0035L95.1218 46.71ZM98.4818 43.49L97.7759 43.1135L97.7712 43.1225L98.4818 43.49ZM99.8118 38.59L99.0158 38.5104L99.0148 38.5203L99.014 38.5302L99.8118 38.59ZM99.8118 26.48L99.014 26.5398L99.0148 26.5497L99.0158 26.5596L99.8118 26.48ZM98.4818 21.58L97.7663 21.9378L97.771 21.9472L97.7759 21.9565L98.4818 21.58ZM95.1218 18.29L94.7464 18.9965L94.7554 19.0012L95.1218 18.29ZM95.1218 15.42L94.9278 14.6439L95.0406 16.2159L95.1218 15.42ZM100.862 17.52L100.379 18.1577L100.385 18.1624L100.391 18.167L100.862 17.52ZM104.572 21.72L103.872 22.1085L103.877 22.1169L104.572 21.72ZM106.252 38.73L105.479 38.5238L105.476 38.536L106.252 38.73ZM103.452 44.33L102.829 43.8281L102.82 43.8388L103.452 44.33ZM98.0618 48.46L98.3951 49.1873L98.4017 49.1842L98.0618 48.46ZM61.5918 50H60.7918V50.8H61.5918V50ZM61.5918 0.999997V0.199997H60.7918V0.999997H61.5918ZM93.2318 1.35L93.0959 2.13836L93.2318 1.35ZM96.7318 2.68L96.288 3.34564L96.3061 3.35769L96.3248 3.36874L96.7318 2.68ZM99.1818 5.27L98.4784 5.65102L98.4818 5.65736L98.4853 5.66364L99.1818 5.27ZM98.5518 13.25L97.9621 12.7094L97.9558 12.7162L97.9497 12.7232L98.5518 13.25ZM92.9518 12.27L93.7448 12.3757L93.7456 12.3692L92.9518 12.27ZM92.1118 4.57L91.4462 5.01376L91.4512 5.02132L91.4564 5.02877L92.1118 4.57ZM68.5918 3.1V2.3H67.7918V3.1H68.5918ZM68.5918 15H67.7918V15.8H68.5918V15ZM67.7918 17.1V47.9H69.3918V17.1H67.7918ZM68.5918 48.7H88.8918V47.1H68.5918V48.7ZM88.8918 48.7C91.615 48.7 93.8404 48.2966 95.4971 47.4165L94.7465 46.0035C93.4165 46.71 91.4886 47.1 88.8918 47.1V48.7ZM95.4882 47.4212C97.1548 46.5626 98.4059 45.378 99.1924 43.8575L97.7712 43.1225C97.1577 44.3086 96.1688 45.2707 94.7554 45.9988L95.4882 47.4212ZM99.1877 43.8665C99.9952 42.3524 100.463 40.6076 100.61 38.6498L99.014 38.5302C98.8809 40.3057 98.4618 41.8276 97.7759 43.1135L99.1877 43.8665ZM100.608 38.6696C100.798 36.7725 100.892 34.7156 100.892 32.5H99.2918C99.2918 34.6711 99.1994 36.6742 99.0158 38.5104L100.608 38.6696ZM100.892 32.5C100.892 30.3305 100.797 28.297 100.608 26.4004L99.0158 26.5596C99.1994 28.3964 99.2918 30.3762 99.2918 32.5H100.892ZM100.61 26.4202C100.463 24.4624 99.9952 22.7176 99.1877 21.2035L97.7759 21.9565C98.4618 23.2424 98.8809 24.7643 99.014 26.5398L100.61 26.4202ZM99.1973 21.2222C98.4133 19.6542 97.1622 18.4412 95.4882 17.5788L94.7554 19.0012C96.1614 19.7255 97.1503 20.7058 97.7663 21.9378L99.1973 21.2222ZM95.4971 17.5835C93.8404 16.7034 91.615 16.3 88.8918 16.3V17.9C91.4886 17.9 93.4165 18.29 94.7465 18.9965L95.4971 17.5835ZM88.8918 16.3H68.5918V17.9H88.8918V16.3ZM95.0406 16.2159C97.2092 16.4372 98.9761 17.0951 100.379 18.1577L101.345 16.8823C99.6675 15.6115 97.6077 14.8695 95.203 14.6241L95.0406 16.2159ZM100.391 18.167C101.836 19.2179 102.995 20.5293 103.872 22.1085L105.271 21.3315C104.282 19.5507 102.967 18.0621 101.332 16.873L100.391 18.167ZM103.877 22.1169C104.766 23.6718 105.389 25.3624 105.747 27.1932L107.317 26.8868C106.928 24.891 106.245 23.0349 105.266 21.3231L103.877 22.1169ZM105.747 27.1932C106.111 29.0624 106.292 30.8308 106.292 32.5H107.892C107.892 30.7158 107.699 28.8443 107.317 26.8868L105.747 27.1932ZM106.292 32.5C106.292 34.4798 106.022 36.4872 105.479 38.5239L107.025 38.9361C107.602 36.7728 107.892 34.6269 107.892 32.5H106.292ZM105.476 38.536C104.991 40.4746 104.111 42.2366 102.829 43.8281L104.075 44.8319C105.499 43.0634 106.486 41.0921 107.028 38.924L105.476 38.536ZM102.82 43.8388C101.604 45.4023 99.9156 46.7061 97.7219 47.7358L98.4017 49.1842C100.781 48.0672 102.686 46.6177 104.083 44.8212L102.82 43.8388ZM97.7285 47.7327C95.625 48.6968 92.9247 49.2 89.5918 49.2V50.8C93.0722 50.8 96.0186 50.2765 98.3951 49.1873L97.7285 47.7327ZM89.5918 49.2H61.5918V50.8H89.5918V49.2ZM62.3918 50V0.999997H60.7918V50H62.3918ZM61.5918 1.8H88.8918V0.199997H61.5918V1.8ZM88.8918 1.8C90.3916 1.8 91.7925 1.91364 93.0959 2.13836L93.3677 0.561628C91.9645 0.319689 90.472 0.199997 88.8918 0.199997V1.8ZM93.0959 2.13836C94.3573 2.35584 95.4151 2.76368 96.288 3.34564L97.1756 2.01436C96.0885 1.28964 94.813 0.810816 93.3677 0.561628L93.0959 2.13836ZM96.3248 3.36874C97.218 3.89655 97.9359 4.64954 98.4784 5.65102L99.8852 4.88897C99.2144 3.65045 98.2989 2.67677 97.1388 1.99125L96.3248 3.36874ZM98.4853 5.66364C99.0039 6.58112 99.2918 7.81004 99.2918 9.4H100.892C100.892 7.62996 100.573 6.10554 99.8782 4.87635L98.4853 5.66364ZM99.2918 9.4C99.2918 10.6357 98.861 11.7288 97.9621 12.7094L99.1415 13.7906C100.296 12.5312 100.892 11.0576 100.892 9.4H99.2918ZM97.9497 12.7232C97.0654 13.7339 96.0597 14.3609 94.9278 14.6439L95.3158 16.1961C96.7972 15.8258 98.0782 15.0061 99.1539 13.7768L97.9497 12.7232ZM88.1918 15.8C89.3358 15.8 90.2865 15.7293 91.0194 15.5722L90.6842 14.0078C90.1105 14.1307 89.2878 14.2 88.1918 14.2V15.8ZM91.0194 15.5722C91.8084 15.4032 92.4839 15.0446 92.9533 14.4411L91.6903 13.4588C91.5063 13.6954 91.2019 13.8968 90.6842 14.0078L91.0194 15.5722ZM92.9533 14.4411C93.391 13.8784 93.6387 13.1717 93.7448 12.3757L92.1588 12.1643C92.0783 12.7683 91.906 13.1816 91.6903 13.4588L92.9533 14.4411ZM93.7456 12.3692C93.8447 11.5769 93.8918 10.5839 93.8918 9.4H92.2918C92.2918 10.5494 92.2456 11.4697 92.158 12.1708L93.7456 12.3692ZM93.8918 9.4C93.8918 7.08622 93.5707 5.25916 92.7672 4.11123L91.4564 5.02877C91.9595 5.7475 92.2918 7.14044 92.2918 9.4H93.8918ZM92.7774 4.12624C91.898 2.80708 90.2394 2.3 88.1918 2.3V3.9C90.0642 3.9 91.0189 4.37291 91.4462 5.01376L92.7774 4.12624ZM88.1918 2.3H68.5918V3.9H88.1918V2.3ZM67.7918 3.1V15H69.3918V3.1H67.7918ZM68.5918 15.8H88.1918V14.2H68.5918V15.8ZM155.488 0.999997L156.184 1.39441L156.86 0.199997H155.488V0.999997ZM154.298 3.1V3.9H154.764L154.994 3.49441L154.298 3.1ZM134.628 3.1V2.3H133.83L133.828 3.09761L134.628 3.1ZM134.488 50V50.8H135.285L135.287 50.0024L134.488 50ZM128.188 50H127.388V50.8H128.188V50ZM128.188 3.1H128.988V2.3H128.188V3.1ZM107.188 3.1L106.491 2.70559L105.815 3.9H107.188V3.1ZM108.378 0.999997V0.199997H107.911L107.681 0.605587L108.378 0.999997ZM154.791 0.605587L153.601 2.70559L154.994 3.49441L156.184 1.39441L154.791 0.605587ZM154.298 2.3H134.628V3.9H154.298V2.3ZM133.828 3.09761L133.688 49.9976L135.287 50.0024L135.427 3.10239L133.828 3.09761ZM134.488 49.2H128.188V50.8H134.488V49.2ZM128.988 50V3.1H127.388V50H128.988ZM128.188 2.3H107.188V3.9H128.188V2.3ZM107.884 3.49441L109.074 1.39441L107.681 0.605587L106.491 2.70559L107.884 3.49441ZM108.378 1.8H155.488V0.199997H108.378V1.8ZM154.691 14.44L153.995 14.0463L153.993 14.0497L154.691 14.44ZM161.621 6.46L162.101 7.1L162.103 7.09874L161.621 6.46ZM171.211 1.7L171.434 2.4685L171.443 2.4657L171.211 1.7ZM192.351 1.7L192.12 2.46576L192.129 2.46845L192.351 1.7ZM201.941 6.46L201.46 7.09877L201.466 7.10378L201.941 6.46ZM208.871 14.44L208.17 14.826L208.177 14.838L208.871 14.44ZM208.871 36.63L208.177 36.232L208.173 36.2397L208.871 36.63ZM201.941 44.54L202.416 45.1838L202.416 45.1838L201.941 44.54ZM192.351 49.3L192.583 50.0657L192.583 50.0657L192.351 49.3ZM171.211 49.3L171.443 48.5343L171.443 48.5343L171.211 49.3ZM161.621 44.54L161.141 45.18L161.146 45.1838L161.621 44.54ZM154.691 36.63L153.993 37.0203L153.997 37.028L154.691 36.63ZM160.781 34.25L160.024 34.5066L160.024 34.5066L160.781 34.25ZM165.121 41.88L164.518 42.4059L164.518 42.4059L165.121 41.88ZM172.191 47.13L171.853 47.855L171.863 47.8595L172.191 47.13ZM191.511 47.13L191.84 47.8595L191.511 47.13ZM198.511 42.02L197.914 41.4877L197.908 41.4951L198.511 42.02ZM202.851 34.6L202.096 34.3357L202.096 34.3357L202.851 34.6ZM204.391 25.78L205.191 25.7921V25.78H204.391ZM202.851 16.68L202.092 16.933L202.095 16.9403L202.097 16.9475L202.851 16.68ZM198.511 8.98L197.903 9.49962L197.908 9.50589L198.511 8.98ZM191.441 3.66L191.78 2.93505L191.78 2.93505L191.441 3.66ZM181.781 1.77L181.792 2.56993L181.792 2.56993L181.781 1.77ZM172.121 3.8L172.45 4.5296L172.46 4.52494L172.121 3.8ZM165.051 8.91L164.454 8.3777L164.453 8.37851L165.051 8.91ZM160.781 16.33L161.536 16.5943L161.538 16.5904L160.781 16.33ZM152.831 25.57C152.831 21.4368 153.693 17.8656 155.39 14.8303L153.993 14.0497C152.142 17.361 151.231 21.2098 151.231 25.57H152.831ZM155.388 14.8336C157.156 11.7043 159.395 9.12998 162.101 7.1L161.141 5.82C158.248 7.99002 155.866 10.7357 153.995 14.0464L155.388 14.8336ZM162.103 7.09874C164.869 5.01282 167.977 3.469 171.434 2.46845L170.989 0.931545C167.352 1.98432 164.067 3.61384 161.14 5.82126L162.103 7.09874ZM171.443 2.4657C174.919 1.41377 178.364 0.889996 181.781 0.889996V-0.710004C178.198 -0.710004 174.597 -0.160444 170.98 0.934292L171.443 2.4657ZM181.781 0.889996C185.198 0.889996 188.644 1.41377 192.12 2.4657L192.583 0.934292C188.966 -0.160444 185.364 -0.710004 181.781 -0.710004V0.889996ZM192.129 2.46845C195.585 3.469 198.693 5.01282 201.46 7.09874L202.423 5.82126C199.496 3.61384 196.211 1.98432 192.574 0.931545L192.129 2.46845ZM201.466 7.10378C204.216 9.13245 206.451 11.7031 208.17 14.8259L209.572 14.0541C207.745 10.7369 205.36 7.98755 202.416 5.81622L201.466 7.10378ZM208.177 14.838C209.917 17.8719 210.801 21.4403 210.801 25.57H212.401C212.401 21.2064 211.465 17.3547 209.565 14.042L208.177 14.838ZM210.801 25.57C210.801 29.6513 209.918 33.1968 208.177 36.232L209.565 37.028C211.464 33.7166 212.401 29.8887 212.401 25.57H210.801ZM208.173 36.2397C206.454 39.3164 204.219 41.8657 201.466 43.8962L202.416 45.1838C205.357 43.0143 207.742 40.2902 209.57 37.0203L208.173 36.2397ZM201.466 43.8962C198.697 45.9394 195.583 47.4862 192.12 48.5343L192.583 50.0657C196.213 48.9672 199.493 47.3406 202.416 45.1838L201.466 43.8962ZM192.12 48.5343C188.644 49.5862 185.198 50.11 181.781 50.11V51.71C185.364 51.71 188.966 51.1604 192.583 50.0657L192.12 48.5343ZM181.781 50.11C178.364 50.11 174.919 49.5862 171.443 48.5343L170.98 50.0657C174.597 51.1604 178.198 51.71 181.781 51.71V50.11ZM171.443 48.5343C167.98 47.4862 164.866 45.9394 162.096 43.8962L161.146 45.1838C164.07 47.3406 167.35 48.9672 170.98 50.0657L171.443 48.5343ZM162.101 43.9C159.392 41.8682 157.154 39.3153 155.385 36.232L153.997 37.028C155.869 40.2914 158.25 43.0118 161.141 45.18L162.101 43.9ZM155.39 36.2397C153.693 33.2031 152.831 29.6548 152.831 25.57H151.231C151.231 29.8852 152.143 33.7102 153.993 37.0203L155.39 36.2397ZM158.511 25.15C158.511 28.4072 159.014 31.5275 160.024 34.5066L161.539 33.9934C160.588 31.1859 160.111 28.2395 160.111 25.15H158.511ZM160.024 34.5066C161.035 37.494 162.533 40.1299 164.518 42.4059L165.724 41.3541C163.883 39.2434 162.487 36.7927 161.539 33.9934L160.024 34.5066ZM164.518 42.4059C166.51 44.6884 168.958 46.5041 171.853 47.8549L172.53 46.4051C169.824 45.1426 167.56 43.4583 165.724 41.3541L164.518 42.4059ZM171.863 47.8595C174.784 49.1738 178.119 49.82 181.851 49.82V48.22C178.304 48.22 175.199 47.6062 172.52 46.4005L171.863 47.8595ZM181.851 49.82C185.584 49.82 188.919 49.1738 191.84 47.8595L191.183 46.4005C188.504 47.6062 185.399 48.22 181.851 48.22V49.82ZM191.84 47.8595C194.737 46.5559 197.166 44.7857 199.115 42.5449L197.908 41.4951C196.123 43.5476 193.886 45.1841 191.183 46.4005L191.84 47.8595ZM199.108 42.5523C201.094 40.325 202.593 37.7599 203.606 34.8643L202.096 34.3357C201.15 37.0401 199.756 39.4217 197.914 41.4877L199.108 42.5523ZM203.606 34.8643C204.616 31.9801 205.143 28.9547 205.191 25.7921L203.591 25.7679C203.546 28.7653 203.047 31.6199 202.096 34.3357L203.606 34.8643ZM205.191 25.78C205.191 22.5186 204.663 19.3946 203.605 16.4125L202.097 16.9475C203.092 19.7521 203.591 22.6947 203.591 25.78H205.191ZM203.61 16.427C202.599 13.3932 201.101 10.7323 199.114 8.4541L197.908 9.50589C199.748 11.6144 201.144 14.0868 202.092 16.933L203.61 16.427ZM199.12 8.46041C197.128 6.1292 194.678 4.28767 191.78 2.93505L191.103 4.38494C193.804 5.64566 196.068 7.3508 197.903 9.49959L199.12 8.46041ZM191.78 2.93505C188.853 1.56919 185.51 0.922126 181.771 0.970065L181.792 2.56993C185.332 2.52453 188.43 3.13747 191.103 4.38494L191.78 2.93505ZM181.771 0.970065C178.038 1.01793 174.702 1.71263 171.783 3.07505L172.46 4.52494C175.14 3.27404 178.245 2.6154 181.792 2.56993L181.771 0.970065ZM171.793 3.07046C168.898 4.37341 166.447 6.14153 164.454 8.3777L165.648 9.4423C167.482 7.38513 169.745 5.74659 172.45 4.52954L171.793 3.07046ZM164.453 8.37851C162.512 10.563 161.037 13.1302 160.025 16.0696L161.538 16.5904C162.486 13.8365 163.858 11.457 165.649 9.44149L164.453 8.37851ZM160.026 16.0657C159.015 18.9539 158.511 21.9835 158.511 25.15H160.111C160.111 22.1565 160.587 19.3061 161.536 16.5943L160.026 16.0657ZM254.789 14.79L254.621 14.0078L254.789 14.79ZM256.259 13.95L256.89 14.4412L256.89 14.4411L256.259 13.95ZM256.889 12.27L257.682 12.3757L257.682 12.3692L256.889 12.27ZM256.889 6.53L256.093 6.61834L256.094 6.62347L256.889 6.53ZM256.259 4.57L255.584 4.9995L255.593 5.01435L255.603 5.02877L256.259 4.57ZM254.789 3.45L254.519 4.20339L254.789 3.45ZM226.229 3.1V2.3H225.429V3.1H226.229ZM226.229 15H225.429V15.8H226.229V15ZM226.229 17.1V16.3H225.429V17.1H226.229ZM226.229 50V50.8H227.029V50H226.229ZM219.229 50H218.429V50.8H219.229V50ZM219.229 0.999997V0.199997H218.429V0.999997H219.229ZM257.869 1.49L257.681 2.26766L257.694 2.27075L257.706 2.27341L257.869 1.49ZM261.439 2.89L261.868 2.21507L261.868 2.21507L261.439 2.89ZM263.819 5.48L263.109 5.85005L263.115 5.86195L263.122 5.87364L263.819 5.48ZM263.819 13.25L263.13 12.843L263.124 12.8531L263.819 13.25ZM261.439 15.56L261.822 16.2623L261.822 16.2623L261.439 15.56ZM257.869 16.75L258.004 17.5384L258.004 17.5384L257.869 16.75ZM252.129 15.8C253.273 15.8 254.223 15.7293 254.956 15.5722L254.621 14.0078C254.047 14.1307 253.225 14.2 252.129 14.2V15.8ZM254.956 15.5722C255.745 15.4032 256.421 15.0446 256.89 14.4412L255.627 13.4588C255.443 13.6954 255.139 13.8968 254.621 14.0078L254.956 15.5722ZM256.89 14.4411C257.328 13.8784 257.575 13.1717 257.682 12.3757L256.096 12.1643C256.015 12.7683 255.843 13.1816 255.627 13.4588L256.89 14.4411ZM257.682 12.3692C257.781 11.5769 257.829 10.5839 257.829 9.4H256.229C256.229 10.5494 256.182 11.4697 256.095 12.1708L257.682 12.3692ZM257.829 9.4C257.829 8.26012 257.781 7.27042 257.683 6.43652L256.094 6.62347C256.183 7.37624 256.229 8.29987 256.229 9.4H257.829ZM257.684 6.44165C257.582 5.52806 257.346 4.72815 256.914 4.11123L255.603 5.02877C255.825 5.34517 256.008 5.85193 256.093 6.61834L257.684 6.44165ZM256.933 4.14049C256.498 3.4564 255.854 2.98097 255.058 2.6966L254.519 4.20339C255.03 4.38569 255.366 4.65693 255.584 4.9995L256.933 4.14049ZM255.058 2.6966C254.281 2.41936 253.291 2.3 252.129 2.3V3.9C253.206 3.9 253.989 4.01397 254.519 4.20339L255.058 2.6966ZM252.129 2.3H226.229V3.9H252.129V2.3ZM225.429 3.1V15H227.029V3.1H225.429ZM226.229 15.8H252.129V14.2H226.229V15.8ZM225.429 17.1V50H227.029V17.1H225.429ZM226.229 49.2H219.229V50.8H226.229V49.2ZM220.029 50V0.999997H218.429V50H220.029ZM219.229 1.8H253.529V0.199997H219.229V1.8ZM253.529 1.8C255.012 1.8 256.395 1.95731 257.681 2.26766L258.056 0.712333C256.635 0.369354 255.125 0.199997 253.529 0.199997V1.8ZM257.706 2.27341C258.978 2.5364 260.074 2.97023 261.009 3.56493L261.868 2.21507C260.749 1.5031 259.466 1.0036 258.031 0.70659L257.706 2.27341ZM261.009 3.56493C261.918 4.14334 262.615 4.9018 263.109 5.85005L264.528 5.10994C263.903 3.91153 263.012 2.94332 261.868 2.21507L261.009 3.56493ZM263.122 5.87364C263.646 6.80047 263.929 7.96405 263.929 9.4H265.529C265.529 7.75594 265.204 6.30619 264.515 5.08635L263.122 5.87364ZM263.929 9.4C263.929 10.8377 263.645 11.9706 263.13 12.843L264.507 13.657C265.205 12.4761 265.529 11.0423 265.529 9.4H263.929ZM263.124 12.8531C262.64 13.6996 261.957 14.366 261.055 14.8577L261.822 16.2623C262.973 15.634 263.877 14.7604 264.513 13.6469L263.124 12.8531ZM261.055 14.8577C260.118 15.369 259.014 15.7407 257.733 15.9616L258.004 17.5384C259.43 17.2927 260.706 16.871 261.822 16.2623L261.055 14.8577ZM257.733 15.9616C256.429 16.1864 255.028 16.3 253.529 16.3V17.9C255.109 17.9 256.601 17.7803 258.004 17.5384L257.733 15.9616ZM253.529 16.3H226.229V17.9H253.529V16.3ZM317.644 45.45L318.08 46.1208L318.712 45.7099L318.34 45.0546L317.644 45.45ZM308.544 49.58L308.754 50.3521L308.764 50.3492L308.544 49.58ZM288.174 49.3L288.406 48.5343L288.406 48.5343L288.174 49.3ZM278.584 44.54L278.104 45.18L278.109 45.1838L278.584 44.54ZM271.654 36.63L270.956 37.0203L270.96 37.028L271.654 36.63ZM271.654 14.44L270.958 14.0463L270.956 14.0497L271.654 14.44ZM278.584 6.46L279.064 7.1L279.066 7.09874L278.584 6.46ZM288.174 1.7L288.397 2.4685L288.406 2.4657L288.174 1.7ZM308.544 1.49L308.324 2.25929L308.335 2.26206L308.544 1.49ZM317.644 5.55L318.34 5.94544L318.712 5.2901L318.08 4.87924L317.644 5.55ZM315.614 9.12L315.007 9.64063L315.747 10.5045L316.31 9.51544L315.614 9.12ZM308.474 3.73L308.126 4.45034L308.136 4.45495L308.474 3.73ZM298.744 1.77L298.734 0.970063L298.734 0.970065L298.744 1.77ZM289.084 3.8L289.412 4.5296L289.422 4.52494L289.084 3.8ZM282.014 8.91L281.417 8.3777L281.416 8.37851L282.014 8.91ZM277.744 16.33L278.499 16.5943L278.501 16.5904L277.744 16.33ZM277.744 34.25L276.986 34.5066L276.986 34.5066L277.744 34.25ZM282.084 41.88L281.481 42.4059L281.481 42.4059L282.084 41.88ZM289.154 47.13L288.816 47.855L288.826 47.8595L289.154 47.13ZM298.814 49.02V49.8201L298.824 49.8199L298.814 49.02ZM308.544 47.06L308.216 46.3304L308.211 46.3326L308.544 47.06ZM315.614 41.88L316.31 41.4846L315.752 40.5046L315.011 41.3541L315.614 41.88ZM317.208 44.7792C314.476 46.5551 311.516 47.8989 308.324 48.8108L308.764 50.3492C312.106 49.3944 315.212 47.9849 318.08 46.1208L317.208 44.7792ZM308.335 48.8079C305.134 49.6767 301.938 50.11 298.744 50.11V51.71C302.084 51.71 305.421 51.2566 308.754 50.3521L308.335 48.8079ZM298.744 50.11C295.327 50.11 291.882 49.5862 288.406 48.5343L287.942 50.0657C291.56 51.1604 295.161 51.71 298.744 51.71V50.11ZM288.406 48.5343C284.942 47.4862 281.829 45.9394 279.059 43.8962L278.109 45.1838C281.033 47.3406 284.313 48.9672 287.942 50.0657L288.406 48.5343ZM279.064 43.9C276.355 41.8682 274.116 39.3153 272.348 36.232L270.96 37.028C272.832 40.2914 275.213 43.0118 278.104 45.18L279.064 43.9ZM272.352 36.2397C270.656 33.2031 269.794 29.6548 269.794 25.57H268.194C268.194 29.8852 269.106 33.7102 270.956 37.0203L272.352 36.2397ZM269.794 25.57C269.794 21.4368 270.656 17.8656 272.352 14.8303L270.956 14.0497C269.105 17.361 268.194 21.2098 268.194 25.57H269.794ZM272.351 14.8336C274.119 11.7043 276.357 9.12998 279.064 7.1L278.104 5.82C275.211 7.99002 272.829 10.7357 270.958 14.0464L272.351 14.8336ZM279.066 7.09874C281.832 5.01282 284.94 3.469 288.397 2.46845L287.952 0.931545C284.315 1.98432 281.03 3.61384 278.102 5.82126L279.066 7.09874ZM288.406 2.4657C291.882 1.41377 295.327 0.889996 298.744 0.889996V-0.710004C295.161 -0.710004 291.56 -0.160444 287.942 0.934292L288.406 2.4657ZM298.744 0.889996C301.934 0.889996 305.126 1.34548 308.324 2.25922L308.764 0.72078C305.429 -0.232156 302.088 -0.710004 298.744 -0.710004V0.889996ZM308.335 2.26206C311.522 3.12724 314.479 4.44671 317.208 6.22075L318.08 4.87924C315.209 3.01328 312.1 1.62609 308.754 0.717934L308.335 2.26206ZM316.949 5.15455L314.919 8.72455L316.31 9.51544L318.34 5.94544L316.949 5.15455ZM316.222 8.59936C314.185 6.22393 311.713 4.3586 308.812 3.00505L308.136 4.45495C310.835 5.71473 313.123 7.44273 315.007 9.64063L316.222 8.59936ZM308.822 3.00972C305.892 1.59329 302.522 0.922114 298.734 0.970063L298.754 2.56994C302.34 2.52455 305.457 3.16003 308.126 4.45028L308.822 3.00972ZM298.734 0.970065C295 1.01793 291.665 1.71263 288.746 3.07505L289.422 4.52494C292.103 3.27404 295.208 2.6154 298.754 2.56993L298.734 0.970065ZM288.756 3.07046C285.86 4.37341 283.41 6.14153 281.417 8.3777L282.611 9.4423C284.445 7.38513 286.708 5.74659 289.412 4.52954L288.756 3.07046ZM281.416 8.37851C279.474 10.563 278 13.1302 276.988 16.0696L278.501 16.5904C279.449 13.8365 280.821 11.457 282.612 9.44149L281.416 8.37851ZM276.989 16.0657C275.978 18.9539 275.474 21.9835 275.474 25.15H277.074C277.074 22.1565 277.55 19.3061 278.499 16.5943L276.989 16.0657ZM275.474 25.15C275.474 28.4072 275.977 31.5275 276.986 34.5066L278.502 33.9934C277.551 31.1859 277.074 28.2395 277.074 25.15H275.474ZM276.986 34.5066C277.998 37.494 279.496 40.1299 281.481 42.4059L282.687 41.3541C280.846 39.2434 279.45 36.7927 278.502 33.9934L276.986 34.5066ZM281.481 42.4059C283.472 44.6884 285.921 46.5041 288.816 47.8549L289.492 46.4051C286.787 45.1426 284.523 43.4583 282.687 41.3541L281.481 42.4059ZM288.826 47.8595C291.746 49.1738 295.082 49.82 298.814 49.82V48.22C295.267 48.22 292.162 47.6062 289.482 46.4005L288.826 47.8595ZM298.824 49.8199C302.644 49.7722 306.002 49.1033 308.877 47.7874L308.211 46.3326C305.58 47.5367 302.451 48.1745 298.804 48.2201L298.824 49.8199ZM308.872 47.7895C311.772 46.4849 314.224 44.6908 316.217 42.4059L315.011 41.3541C313.178 43.4558 310.917 45.1151 308.216 46.3305L308.872 47.7895ZM314.919 42.2754L316.949 45.8454L318.34 45.0546L316.31 41.4846L314.919 42.2754ZM357.068 15L356.374 14.6012L356.144 15.0017L356.376 15.4014L357.068 15ZM377.368 50V50.8H378.757L378.06 49.5986L377.368 50ZM369.248 50L368.555 50.3996L368.786 50.8H369.248V50ZM350.278 17.1L350.971 16.7004L350.74 16.3H350.278V17.1ZM333.758 17.1V16.3H332.958V17.1H333.758ZM333.758 50V50.8H334.558V50H333.758ZM326.758 50H325.958V50.8H326.758V50ZM326.758 0.999997V0.199997H325.958V0.999997H326.758ZM333.758 0.999997H334.558V0.199997H333.758V0.999997ZM333.758 15H332.958V15.8H333.758V15ZM354.198 15V15.8H354.657L354.888 15.404L354.198 15ZM362.388 0.999997V0.199997H361.929L361.697 0.596042L362.388 0.999997ZM365.118 0.999997L365.811 1.39877L366.501 0.199997H365.118V0.999997ZM356.376 15.4014L376.676 50.4014L378.06 49.5986L357.76 14.5986L356.376 15.4014ZM377.368 49.2H369.248V50.8H377.368V49.2ZM369.941 49.6004L350.971 16.7004L349.585 17.4996L368.555 50.3996L369.941 49.6004ZM350.278 16.3H333.758V17.9H350.278V16.3ZM332.958 17.1V50H334.558V17.1H332.958ZM333.758 49.2H326.758V50.8H333.758V49.2ZM327.558 50V0.999997H325.958V50H327.558ZM326.758 1.8H333.758V0.199997H326.758V1.8ZM332.958 0.999997V15H334.558V0.999997H332.958ZM333.758 15.8H354.198V14.2H333.758V15.8ZM354.888 15.404L363.078 1.40395L361.697 0.596042L353.507 14.596L354.888 15.404ZM362.388 1.8H365.118V0.199997H362.388V1.8ZM364.424 0.60122L356.374 14.6012L357.761 15.3988L365.811 1.39877L364.424 0.60122ZM424.056 6.25V5.45H423.684L423.444 5.7343L424.056 6.25ZM387.166 50V50.8H387.538L387.777 50.5157L387.166 50ZM382.266 50H381.466V50.8H382.266V50ZM382.266 0.999997V0.199997H381.466V0.999997H382.266ZM389.266 0.999997H390.066V0.199997H389.266V0.999997ZM389.266 43.14H388.466V43.94H389.266V43.14ZM390.176 43.14V43.94H390.548L390.788 43.6553L390.176 43.14ZM425.666 0.999997V0.199997H425.293L425.054 0.484657L425.666 0.999997ZM431.966 0.999997H432.766V0.199997H431.966V0.999997ZM431.966 50V50.8H432.766V50H431.966ZM424.966 50H424.166V50.8H424.966V50ZM424.966 6.25H425.766V5.45H424.966V6.25ZM423.444 5.7343L386.554 49.4843L387.777 50.5157L424.667 6.7657L423.444 5.7343ZM387.166 49.2H382.266V50.8H387.166V49.2ZM383.066 50V0.999997H381.466V50H383.066ZM382.266 1.8H389.266V0.199997H382.266V1.8ZM388.466 0.999997V43.14H390.066V0.999997H388.466ZM389.266 43.94H390.176V42.34H389.266V43.94ZM390.788 43.6553L426.278 1.51534L425.054 0.484657L389.564 42.6247L390.788 43.6553ZM425.666 1.8H431.966V0.199997H425.666V1.8ZM431.166 0.999997V50H432.766V0.999997H431.166ZM431.966 49.2H424.966V50.8H431.966V49.2ZM425.766 50V6.25H424.166V50H425.766ZM424.966 5.45H424.056V7.05H424.966V5.45ZM450.857 15H450.057V15.8H450.857V15ZM478.437 15L479.133 15.3944L479.81 14.2H478.437V15ZM477.247 17.1V17.9H477.714L477.943 17.4944L477.247 17.1ZM450.857 17.1V16.3H450.057V17.1H450.857ZM450.857 47.9H450.057V48.7H450.857V47.9ZM489.357 47.9L490.053 48.2944L490.73 47.1H489.357V47.9ZM488.167 50V50.8H488.634L488.863 50.3944L488.167 50ZM443.857 50H443.057V50.8H443.857V50ZM443.857 0.999997V0.199997H443.057V0.999997H443.857ZM486.557 0.999997L487.253 1.39441L487.93 0.199997H486.557V0.999997ZM485.367 3.1V3.9H485.834L486.063 3.49441L485.367 3.1ZM450.857 3.1V2.3H450.057V3.1H450.857ZM450.857 15.8H478.437V14.2H450.857V15.8ZM477.741 14.6056L476.551 16.7056L477.943 17.4944L479.133 15.3944L477.741 14.6056ZM477.247 16.3H450.857V17.9H477.247V16.3ZM450.057 17.1V47.9H451.657V17.1H450.057ZM450.857 48.7H489.357V47.1H450.857V48.7ZM488.661 47.5056L487.471 49.6056L488.863 50.3944L490.053 48.2944L488.661 47.5056ZM488.167 49.2H443.857V50.8H488.167V49.2ZM444.657 50V0.999997H443.057V50H444.657ZM443.857 1.8H486.557V0.199997H443.857V1.8ZM485.861 0.605588L484.671 2.70559L486.063 3.49441L487.253 1.39441L485.861 0.605588ZM485.367 2.3H450.857V3.9H485.367V2.3ZM450.057 3.1V15H451.657V3.1H450.057Z" fill="white"/>
</svg>
