<svg width="25" height="25" viewBox="0 0 25 25" fill="none" xmlns="http://www.w3.org/2000/svg">
<path fill-rule="evenodd" clip-rule="evenodd" d="M12.5 0C19.4038 0 25 5.59616 25 12.5C25 19.4038 19.4038 25 12.5 25C5.59615 25 0 19.4038 0 12.5C0 5.59616 5.59615 0 12.5 0ZM13.2486 5.09136C14.0986 5.19761 14.7856 5.40241 15.5389 5.7702C16.2803 6.1327 16.7548 6.47597 17.3822 7.1C17.9702 7.68943 18.2966 8.13605 18.6423 8.82932C19.124 9.79615 19.3986 10.9462 19.4452 12.2116C19.4625 12.6433 19.45 12.7394 19.3514 12.863C19.1639 13.1019 18.751 13.0625 18.6101 12.7938C18.5659 12.7048 18.5534 12.6284 18.5385 12.2832C18.5139 11.7529 18.4769 11.4096 18.4029 11C18.1111 9.39423 17.3404 8.11154 16.1096 7.19135C15.0846 6.42164 14.0245 6.04664 12.6361 5.96539C12.1664 5.93799 12.0851 5.92067 11.9789 5.83942C11.7808 5.68365 11.7712 5.31874 11.9615 5.14855C12.0774 5.04278 12.1586 5.02739 12.5615 5.03989C12.7716 5.0471 13.0808 5.07212 13.249 5.09183L13.2486 5.09136ZM7.60049 5.35818C7.68703 5.38799 7.8202 5.45673 7.89713 5.50625C8.36636 5.81683 9.67356 7.48701 10.101 8.32115C10.3457 8.79711 10.4269 9.14999 10.3505 9.41153C10.2711 9.69278 10.1404 9.84085 9.55482 10.312C9.3202 10.5019 9.1 10.6966 9.06586 10.7486C8.97692 10.8769 8.90479 11.1284 8.90479 11.3063C8.90768 11.7183 9.17404 12.4659 9.52501 13.0404C9.79712 13.487 10.2837 14.0596 10.7654 14.4985C11.3313 15.0163 11.8303 15.3692 12.3937 15.6481C13.1178 16.0086 13.5601 16.1 13.8836 15.949C13.9654 15.912 14.0519 15.8625 14.0788 15.8404C14.1034 15.8183 14.2938 15.5865 14.5015 15.3298C14.9015 14.8264 14.9928 14.7452 15.2673 14.6514C15.6159 14.5332 15.9716 14.5649 16.3298 14.7476C16.6014 14.8885 17.1942 15.2558 17.5774 15.5221C18.0812 15.875 19.1591 16.7534 19.3043 16.9284C19.5615 17.2442 19.6058 17.649 19.4332 18.0952C19.2505 18.5663 18.5389 19.45 18.0418 19.8274C17.5923 20.1678 17.2736 20.2986 16.8534 20.3178C16.5072 20.3356 16.3644 20.3058 15.9221 20.1231C12.4529 18.6952 9.68317 16.5635 7.48461 13.6351C6.33557 12.1053 5.46057 10.5192 4.86298 8.87354C4.51442 7.91393 4.4976 7.49711 4.78366 7.00625C4.90722 6.79904 5.43365 6.28558 5.81683 5.99952C6.45385 5.52596 6.74807 5.35047 6.98269 5.30143C7.14326 5.26682 7.42261 5.29424 7.60049 5.35818ZM13.4192 6.88028C14.9192 7.09999 16.0803 7.79568 16.8414 8.92548C17.2688 9.56202 17.5356 10.3096 17.6269 11.1111C17.6591 11.4048 17.6591 11.9404 17.6245 12.0293C17.5923 12.113 17.4885 12.2264 17.3995 12.2731C17.3034 12.3226 17.0981 12.3178 16.9846 12.2586C16.7942 12.1625 16.7375 12.0091 16.7375 11.5952C16.7375 10.9558 16.5716 10.2827 16.2856 9.75914C15.9632 9.1661 15.4869 8.67097 14.9067 8.32596C14.4101 8.0298 13.676 7.81058 13.0067 7.75625C12.7644 7.73654 12.6308 7.68702 12.5394 7.58077C12.4711 7.50568 12.4303 7.40965 12.4236 7.30837C12.4168 7.20709 12.4446 7.10652 12.5024 7.02306C12.6308 6.82354 12.8288 6.79133 13.4192 6.88028ZM13.9452 8.74279C14.4322 8.84663 14.8053 9.03124 15.124 9.33028C15.5341 9.7173 15.7587 10.1861 15.8577 10.8596C15.9245 11.2986 15.8971 11.4716 15.7418 11.6144C15.5957 11.7476 15.3264 11.7529 15.1635 11.6269C15.0447 11.538 15.0077 11.4442 14.9808 11.1904C14.9485 10.8524 14.8894 10.6154 14.788 10.3957C14.5707 9.92932 14.1875 9.68799 13.5404 9.60867C13.2361 9.57165 13.1447 9.5375 13.0461 9.42116C12.8659 9.20674 12.9346 8.85864 13.1846 8.73076C13.2784 8.68364 13.3178 8.67886 13.5255 8.69088C13.6663 8.69921 13.8065 8.71655 13.9452 8.74279Z" fill="#102F28"/>
</svg>
